<svg xmlns="http://www.w3.org/2000/svg" xmlns:xlink="http://www.w3.org/1999/xlink" width="646.241" height="339.099" viewBox="0 0 646.241 339.099">
  <defs>
    <linearGradient id="linear-gradient" x1="0.5" y1="1" x2="0.5" gradientUnits="objectBoundingBox">
      <stop offset="0" stop-color="gray" stop-opacity="0.251"/>
      <stop offset="0.54" stop-color="gray" stop-opacity="0.122"/>
      <stop offset="1" stop-color="gray" stop-opacity="0.102"/>
    </linearGradient>
    <linearGradient id="linear-gradient-2" x1="0.5" y1="1" x2="0.5" y2="-0.001" xlink:href="#linear-gradient"/>
  </defs>
  <g id="Group_52" data-name="Group 52" transform="translate(0 0.359)" opacity="0.71">
    <g id="Group_43" data-name="Group 43" transform="translate(250.683 23.227)" opacity="0.1">
      <ellipse id="Ellipse_36" data-name="Ellipse 36" cx="6.71" cy="8.786" rx="6.71" ry="8.786" transform="translate(25.29 181.359)" fill="#3f3d56"/>
      <path id="Path_243" data-name="Path 243" d="M532.046,451.147a10.614,10.614,0,0,0,1.4-5.372c0-4.853-3.007-8.786-6.716-8.786s-6.734,3.945-6.734,8.8a10.615,10.615,0,0,0,1.4,5.372,10.973,10.973,0,0,0,0,10.737,10.973,10.973,0,0,0,0,10.737,10.578,10.578,0,0,0-1.4,5.372c0,4.847,3.007,8.786,6.71,8.786s6.716-3.939,6.716-8.786a10.579,10.579,0,0,0-1.4-5.372,10.973,10.973,0,0,0,0-10.737,10.973,10.973,0,0,0,0-10.737Z" transform="translate(-494.733 -298.591)" fill="#3f3d56"/>
      <ellipse id="Ellipse_37" data-name="Ellipse 37" cx="6.71" cy="8.786" rx="6.71" ry="8.786" transform="translate(25.29 127.673)" fill="#3f3d56"/>
      <ellipse id="Ellipse_38" data-name="Ellipse 38" cx="6.71" cy="8.786" rx="6.71" ry="8.786" transform="translate(25.29 116.936)" fill="#3f3d56"/>
      <path id="Path_244" data-name="Path 244" d="M484.031,254.506a31.3,31.3,0,0,1-2.5-3.679l17.63-2.9-19.069.142a32.206,32.206,0,0,1-.59-25.472l25.584,13.273L481.5,218.527a32.153,32.153,0,1,1,53.067,35.968,32.152,32.152,0,0,1,3.668,5.861l-22.9,11.922,24.405-8.19a32.153,32.153,0,0,1-5.183,30.189,32.147,32.147,0,1,1-50.532,0,32.147,32.147,0,0,1,0-39.753Z" transform="translate(-477.149 -202.271)" fill="#6c63ff"/>
      <path id="Path_245" data-name="Path 245" d="M541.443,324.24a32,32,0,0,1-6.881,19.877,32.147,32.147,0,1,1-50.532,0C479.72,338.645,541.443,320.632,541.443,324.24Z" transform="translate(-477.149 -252.128)" opacity="0.1"/>
    </g>
    <g id="Group_44" data-name="Group 44" transform="translate(337.107 52.609)" opacity="0.1">
      <ellipse id="Ellipse_39" data-name="Ellipse 39" cx="5.018" cy="6.563" rx="5.018" ry="6.563" transform="translate(18.898 135.414)" fill="#3f3d56"/>
      <path id="Path_246" data-name="Path 246" d="M664.746,437.9a7.92,7.92,0,0,0,1.044-4.01c0-3.626-2.247-6.569-5.012-6.569s-5.018,2.948-5.018,6.569a7.86,7.86,0,0,0,1.05,4.01,8.2,8.2,0,0,0,0,8.025,8.2,8.2,0,0,0,0,8.025,7.86,7.86,0,0,0-1.05,4.009c0,3.626,2.247,6.569,5.018,6.569s5.012-2.948,5.012-6.569a7.92,7.92,0,0,0-1.044-4.009,8.255,8.255,0,0,0,0-8.025A8.255,8.255,0,0,0,664.746,437.9Z" transform="translate(-636.868 -324.006)" fill="#3f3d56"/>
      <ellipse id="Ellipse_40" data-name="Ellipse 40" cx="5.018" cy="6.563" rx="5.018" ry="6.563" transform="translate(18.898 95.295)" fill="#3f3d56"/>
      <ellipse id="Ellipse_41" data-name="Ellipse 41" cx="5.018" cy="6.563" rx="5.018" ry="6.563" transform="translate(18.898 87.27)" fill="#3f3d56"/>
      <path id="Path_247" data-name="Path 247" d="M628.862,291.023a22.987,22.987,0,0,1-1.869-2.748l13.178-2.164-14.252.106a24.081,24.081,0,0,1-.46-19.039l19.122,9.924L626.945,264.13a24.028,24.028,0,1,1,39.677,26.887,24.3,24.3,0,0,1,2.742,4.381l-17.1,8.886,18.238-6.12a24.034,24.034,0,0,1-3.874,22.559,24.022,24.022,0,1,1-37.737,0,24.022,24.022,0,0,1,0-29.706Z" transform="translate(-623.72 -252.103)" fill="#6c63ff"/>
      <path id="Path_248" data-name="Path 248" d="M671.771,343.054a23.921,23.921,0,0,1-5.142,14.853,24.022,24.022,0,1,1-37.737,0C625.662,353.821,671.771,340.359,671.771,343.054Z" transform="translate(-623.728 -289.281)" opacity="0.1"/>
    </g>
    <g id="Group_45" data-name="Group 45" transform="translate(579.931 -0.359)" opacity="0.1">
      <ellipse id="Ellipse_42" data-name="Ellipse 42" cx="6.71" cy="8.786" rx="6.71" ry="8.786" transform="translate(25.743 181.359)" fill="#3f3d56"/>
      <path id="Path_249" data-name="Path 249" d="M1080.593,411.147a10.612,10.612,0,0,1-1.4-5.372c0-4.853,3.007-8.786,6.716-8.786s6.71,3.933,6.71,8.786a10.612,10.612,0,0,1-1.4,5.372,10.973,10.973,0,0,1,0,10.737,10.974,10.974,0,0,1,0,10.737,10.578,10.578,0,0,1,1.4,5.372c0,4.847-3.007,8.786-6.71,8.786s-6.716-3.939-6.716-8.786a10.576,10.576,0,0,1,1.4-5.372,10.972,10.972,0,0,1,0-10.737A10.972,10.972,0,0,1,1080.593,411.147Z" transform="translate(-1053.453 -258.591)" fill="#3f3d56"/>
      <ellipse id="Ellipse_43" data-name="Ellipse 43" cx="6.71" cy="8.786" rx="6.71" ry="8.786" transform="translate(25.743 127.673)" fill="#3f3d56"/>
      <ellipse id="Ellipse_44" data-name="Ellipse 44" cx="6.71" cy="8.786" rx="6.71" ry="8.786" transform="translate(25.743 116.936)" fill="#3f3d56"/>
      <path id="Path_250" data-name="Path 250" d="M1093.112,214.506a31.266,31.266,0,0,0,2.5-3.679l-17.63-2.9,19.069.142a32.207,32.207,0,0,0,.59-25.472l-25.584,13.273,23.585-17.347a32.153,32.153,0,1,0-53.067,35.968,32.178,32.178,0,0,0-3.667,5.861l22.9,11.922-24.4-8.19a32.152,32.152,0,0,0,5.183,30.189,32.147,32.147,0,1,0,50.532,0,32.146,32.146,0,0,0,0-39.753Z" transform="translate(-1035.541 -162.271)" fill="#6c63ff"/>
      <path id="Path_251" data-name="Path 251" d="M1035.81,284.24a32,32,0,0,0,6.881,19.877,32.147,32.147,0,1,0,50.532,0C1097.533,298.645,1035.81,280.632,1035.81,284.24Z" transform="translate(-1035.651 -212.129)" opacity="0.1"/>
    </g>
    <g id="Group_46" data-name="Group 46" transform="translate(523.453 49.071)" opacity="0.1">
      <ellipse id="Ellipse_45" data-name="Ellipse 45" cx="5.018" cy="6.563" rx="5.018" ry="6.563" transform="translate(19.136 135.414)" fill="#3f3d56"/>
      <path id="Path_252" data-name="Path 252" d="M973.273,431.9a7.921,7.921,0,0,1-1.044-4.009c0-3.626,2.247-6.569,5.012-6.569s5.018,2.948,5.018,6.569a7.859,7.859,0,0,1-1.049,4.009,8.2,8.2,0,0,1,0,8.025,8.2,8.2,0,0,1,0,8.025,7.86,7.86,0,0,1,1.05,4.009c0,3.626-2.247,6.569-5.018,6.569s-5.012-2.948-5.012-6.569a7.92,7.92,0,0,1,1.044-4.009,8.255,8.255,0,0,1,0-8.025,8.255,8.255,0,0,1,0-8.025Z" transform="translate(-953.082 -318.006)" fill="#3f3d56"/>
      <ellipse id="Ellipse_46" data-name="Ellipse 46" cx="5.018" cy="6.563" rx="5.018" ry="6.563" transform="translate(19.136 95.295)" fill="#3f3d56"/>
      <ellipse id="Ellipse_47" data-name="Ellipse 47" cx="5.018" cy="6.563" rx="5.018" ry="6.563" transform="translate(19.136 87.27)" fill="#3f3d56"/>
      <path id="Path_253" data-name="Path 253" d="M982.684,285.023a22.992,22.992,0,0,0,1.869-2.748l-13.178-2.164,14.251.106a24.08,24.08,0,0,0,.46-19.039L966.964,271.1,984.6,258.13a24.028,24.028,0,1,0-39.677,26.887,24.3,24.3,0,0,0-2.742,4.381l17.1,8.886-18.2-6.115a24.033,24.033,0,0,0,3.874,22.559,24.022,24.022,0,1,0,37.737,0,24.022,24.022,0,0,0,0-29.706Z" transform="translate(-939.756 -246.103)" fill="#6c63ff"/>
      <path id="Path_254" data-name="Path 254" d="M939.791,337.054a23.921,23.921,0,0,0,5.142,14.853,24.022,24.022,0,1,0,37.737,0C985.9,347.821,939.791,334.359,939.791,337.054Z" transform="translate(-939.766 -283.281)" opacity="0.1"/>
    </g>
    <g id="Group_47" data-name="Group 47" transform="translate(4.31 -0.26)" opacity="0.1">
      <ellipse id="Ellipse_48" data-name="Ellipse 48" cx="6.71" cy="8.786" rx="6.71" ry="8.786" transform="translate(25.296 181.261)" fill="#3f3d56"/>
      <path id="Path_255" data-name="Path 255" d="M114.226,411.147a10.614,10.614,0,0,0,1.4-5.372c0-4.853-3.007-8.786-6.71-8.786s-6.71,3.933-6.71,8.786a10.614,10.614,0,0,0,1.4,5.372,11.008,11.008,0,0,0,0,10.737,11.009,11.009,0,0,0,0,10.737,10.572,10.572,0,0,0-1.4,5.372c0,4.847,3,8.786,6.71,8.786s6.728-3.927,6.728-8.774a10.578,10.578,0,0,0-1.4-5.372,10.973,10.973,0,0,0,0-10.737,10.973,10.973,0,0,0,0-10.737Z" transform="translate(-76.914 -258.69)" fill="#3f3d56"/>
      <ellipse id="Ellipse_49" data-name="Ellipse 49" cx="6.71" cy="8.786" rx="6.71" ry="8.786" transform="translate(25.296 127.574)" fill="#3f3d56"/>
      <ellipse id="Ellipse_50" data-name="Ellipse 50" cx="6.71" cy="8.786" rx="6.71" ry="8.786" transform="translate(25.296 116.837)" fill="#3f3d56"/>
      <path id="Path_256" data-name="Path 256" d="M66.2,214.575a32.036,32.036,0,0,1-2.5-3.679L81.338,208l-19.087.171a32.206,32.206,0,0,1-.59-25.472l25.59,13.273L63.667,178.625a32.147,32.147,0,1,1,53.067,35.968,32.159,32.159,0,0,1,3.668,5.861L97.5,232.347l24.411-8.19a32.188,32.188,0,0,1-5.189,30.189,32.147,32.147,0,1,1-50.532,0,32.147,32.147,0,0,1,0-39.753Z" transform="translate(-59.309 -162.439)" fill="#6c63ff"/>
      <path id="Path_257" data-name="Path 257" d="M123.6,284.24a32,32,0,0,1-6.881,19.877,32.147,32.147,0,1,1-50.532,0C61.88,298.645,123.6,280.632,123.6,284.24Z" transform="translate(-59.309 -212.227)" opacity="0.1"/>
    </g>
    <g id="Group_48" data-name="Group 48" transform="translate(77.172 49.071)" opacity="0.1">
      <ellipse id="Ellipse_51" data-name="Ellipse 51" cx="5.018" cy="6.563" rx="5.018" ry="6.563" transform="translate(18.898 135.414)" fill="#3f3d56"/>
      <path id="Path_258" data-name="Path 258" d="M223.916,431.9a7.919,7.919,0,0,0,1.044-4.009c0-3.626-2.241-6.569-5.012-6.569s-5.018,2.948-5.018,6.569a7.918,7.918,0,0,0,1.05,4.009,8.2,8.2,0,0,0,0,8.025,8.2,8.2,0,0,0,0,8.025,7.918,7.918,0,0,0-1.05,4.009c0,3.626,2.246,6.569,5.018,6.569s5.012-2.948,5.012-6.569a7.919,7.919,0,0,0-1.044-4.009,8.255,8.255,0,0,0,0-8.025A8.255,8.255,0,0,0,223.916,431.9Z" transform="translate(-196.032 -318.006)" fill="#3f3d56"/>
      <ellipse id="Ellipse_52" data-name="Ellipse 52" cx="5.018" cy="6.563" rx="5.018" ry="6.563" transform="translate(18.898 95.295)" fill="#3f3d56"/>
      <ellipse id="Ellipse_53" data-name="Ellipse 53" cx="5.018" cy="6.563" rx="5.018" ry="6.563" transform="translate(18.898 87.27)" fill="#3f3d56"/>
      <path id="Path_259" data-name="Path 259" d="M188.022,285.023a23.707,23.707,0,0,1-1.869-2.748l13.178-2.164-14.252.106a24.081,24.081,0,0,1-.46-19.039l19.122,9.924L186.105,258.13a24.028,24.028,0,1,1,39.677,26.887,23.655,23.655,0,0,1,2.742,4.381l-17.1,8.886,18.237-6.12a24.034,24.034,0,0,1-3.874,22.56,24.022,24.022,0,1,1-37.737,0,24.022,24.022,0,0,1,0-29.706Z" transform="translate(-182.88 -246.103)" fill="#6c63ff"/>
      <path id="Path_260" data-name="Path 260" d="M230.931,337.054a23.921,23.921,0,0,1-5.142,14.853,24.022,24.022,0,1,1-37.737,0C184.81,347.821,230.931,334.359,230.931,337.054Z" transform="translate(-182.888 -283.281)" opacity="0.1"/>
    </g>
    <ellipse id="Ellipse_54" data-name="Ellipse 54" cx="323.12" cy="5.224" rx="323.12" ry="5.224" transform="translate(0 285.396)" fill="#6c63ff" opacity="0.1"/>
    <ellipse id="Ellipse_55" data-name="Ellipse 55" cx="323.12" cy="5.224" rx="323.12" ry="5.224" transform="translate(0 328.292)" fill="#6c63ff" opacity="0.1"/>
    <ellipse id="Ellipse_56" data-name="Ellipse 56" cx="323.12" cy="5.224" rx="323.12" ry="5.224" transform="translate(0 195.871)" fill="#6c63ff" opacity="0.1"/>
    <ellipse id="Ellipse_57" data-name="Ellipse 57" cx="323.12" cy="5.224" rx="323.12" ry="5.224" transform="translate(0 240.631)" fill="#6c63ff" opacity="0.1"/>
    <path id="Path_261" data-name="Path 261" d="M838.29,263a10.791,10.791,0,0,0-6.25.684,9.228,9.228,0,0,1-7.512,0,10.543,10.543,0,0,0-8.844.171,5.449,5.449,0,0,1-2.541.637c-3.585,0-6.563-3.609-7.182-8.367a7,7,0,0,0,1.769-1.928c2.1-3.384,5.348-5.56,9-5.56s6.863,2.146,8.962,5.5a6.887,6.887,0,0,0,5.949,3.267h.094C834.622,257.372,837.093,259.66,838.29,263Z" transform="translate(-361.398 -198.073)" fill="#6c63ff" opacity="0.1"/>
    <path id="Path_262" data-name="Path 262" d="M849.2,238.79l-5.79,3.668,3.538-6.392a5.72,5.72,0,0,0-3.5-1.244h-.094a6.69,6.69,0,0,1-1.179-.088l-1.993,1.244.843-1.533a6.951,6.951,0,0,1-3.437-2.606l-3.538,2.229,2.217-4.033a10.275,10.275,0,0,0-7.866-3.974c-3.656,0-6.9,2.17-9.01,5.554a6.728,6.728,0,0,1-5.949,3.208h-.194c-4.033,0-7.3,4.57-7.3,10.207s3.267,10.212,7.3,10.212a5.537,5.537,0,0,0,2.541-.637,10.531,10.531,0,0,1,8.845-.177,9.169,9.169,0,0,0,7.512,0,10.566,10.566,0,0,1,8.762.171,5.483,5.483,0,0,0,2.512.625c4.033,0,7.3-4.576,7.3-10.212A12.932,12.932,0,0,0,849.2,238.79Z" transform="translate(-361.39 -188.807)" fill="#6c63ff" opacity="0.1"/>
    <path id="Path_263" data-name="Path 263" d="M427.518,260.593a7.572,7.572,0,0,0-4.381.478,6.439,6.439,0,0,1-5.254,0,7.359,7.359,0,0,0-6.185.124,3.9,3.9,0,0,1-1.769.442c-2.506,0-4.593-2.524-5.03-5.855a4.906,4.906,0,0,0,1.256-1.35,7.046,7.046,0,0,1,12.577-.047,4.829,4.829,0,0,0,4.169,2.288h.065C424.948,256.66,426.675,258.264,427.518,260.593Z" transform="translate(-196.818 -198.852)" fill="#6c63ff" opacity="0.1"/>
    <path id="Path_264" data-name="Path 264" d="M435.146,243.655l-4.051,2.571,2.459-4.475a3.98,3.98,0,0,0-2.447-.873h-.071a4.416,4.416,0,0,1-.837-.065l-1.374.873.59-1.073a4.894,4.894,0,0,1-2.406-1.822l-2.459,1.557,1.557-2.818a7.2,7.2,0,0,0-5.507-2.789,7.542,7.542,0,0,0-6.3,3.892,4.717,4.717,0,0,1-4.169,2.246h-.136c-2.824,0-5.112,3.2-5.112,7.146s2.288,7.146,5.112,7.146a3.832,3.832,0,0,0,1.769-.448,7.371,7.371,0,0,1,6.179-.118,6.333,6.333,0,0,0,5.26.035,7.394,7.394,0,0,1,6.132.118,3.821,3.821,0,0,0,1.769.436c2.818,0,5.106-3.2,5.106-7.146A9.039,9.039,0,0,0,435.146,243.655Z" transform="translate(-196.809 -192.369)" fill="#6c63ff" opacity="0.1"/>
    <path id="Path_265" data-name="Path 265" d="M321.59,339a7.56,7.56,0,0,1,4.375.478,6.451,6.451,0,0,0,5.26,0,7.382,7.382,0,0,1,6.185.118,3.815,3.815,0,0,0,1.769.448c2.506,0,4.593-2.53,5.024-5.861a4.8,4.8,0,0,1-1.25-1.35,7.053,7.053,0,0,0-12.583-.041,4.829,4.829,0,0,1-4.163,2.288h-.065C324.155,335.094,322.421,336.692,321.59,339Z" transform="translate(-162.63 -231.029)" fill="#6c63ff" opacity="0.1"/>
    <path id="Path_266" data-name="Path 266" d="M307.9,322.1l4.057,2.571-2.465-4.469a4,4,0,0,1,2.453-.879h.065a5.018,5.018,0,0,0,.843-.059l1.374.867-.59-1.067a4.888,4.888,0,0,0,2.4-1.822L318.5,318.8l-1.533-2.824a7.193,7.193,0,0,1,5.507-2.783,7.549,7.549,0,0,1,6.3,3.892,4.717,4.717,0,0,0,4.163,2.247h.142c2.818,0,5.106,3.2,5.106,7.146s-2.288,7.146-5.106,7.146a3.827,3.827,0,0,1-1.769-.442,7.358,7.358,0,0,0-6.185-.124,6.4,6.4,0,0,1-2.642.59,6.485,6.485,0,0,1-2.618-.554,7.382,7.382,0,0,0-6.126.118,3.821,3.821,0,0,1-1.769.436c-2.824,0-5.112-3.2-5.112-7.146A9.1,9.1,0,0,1,307.9,322.1Z" transform="translate(-156.584 -224.562)" fill="#6c63ff" opacity="0.1"/>
    <path id="Path_267" data-name="Path 267" d="M711.705,609.194c1.539-2.854-.206-6.344-2.211-8.886s-4.458-5.189-4.4-8.426c.077-4.652,5.018-7.406,8.962-9.87a43.808,43.808,0,0,0,8.049-6.486,11.867,11.867,0,0,0,2.471-3.314,13.4,13.4,0,0,0,.743-5.9q-.254-9.959-.985-19.906" transform="translate(-320.004 -320.267)" fill="none" stroke="#3f3d56" stroke-miterlimit="10" stroke-width="4"/>
    <path id="Path_268" data-name="Path 268" d="M740.352,541.031a7.259,7.259,0,0,0-3.626-5.949L735.1,538.3l.053-3.892a7.258,7.258,0,1,0,5.2,6.628Z" transform="translate(-328.521 -315.219)" fill="#427646"/>
    <path id="Path_269" data-name="Path 269" d="M718.946,621.851a7.258,7.258,0,0,1-13.7-2.948,7.074,7.074,0,0,1,.472-2.948,7.264,7.264,0,0,1,13.562.077l-4.534,3.691,4.988-1.179A7.218,7.218,0,0,1,718.946,621.851Z" transform="translate(-320.063 -346.909)" fill="#427646"/>
    <path id="Path_270" data-name="Path 270" d="M717.12,595.169a7.258,7.258,0,0,1-2.3-14.24l-.041,2.989,1.645-3.255h0a7.26,7.26,0,1,1,.678,14.5Z" transform="translate(-321.823 -334.32)" fill="#427646"/>
    <path id="Path_271" data-name="Path 271" d="M746.987,575.283a7.258,7.258,0,1,1,3.208-13.562l-1.279,3.538,2.612-2.583a7.259,7.259,0,0,1-4.564,12.6Z" transform="translate(-334.066 -326.162)" fill="#427646"/>
    <path id="Path_272" data-name="Path 272" d="M739.365,545.736c-1.675.183-3.3.7-4.988.808a5.4,5.4,0,0,1-4.587-1.6,23.231,23.231,0,0,1-1.344-2.358,5.165,5.165,0,0,0-1.828-1.722,7.258,7.258,0,1,0,13.562,4.823C739.914,545.689,739.637,545.707,739.365,545.736Z" transform="translate(-328.513 -317.989)" opacity="0.1"/>
    <path id="Path_273" data-name="Path 273" d="M747.009,578.174a7.258,7.258,0,0,1-6.9-10.354,5.373,5.373,0,0,1,1.456,1.462,24.625,24.625,0,0,0,1.439,2.4,5.921,5.921,0,0,0,4.817,1.68c1.751-.089,3.443-.59,5.189-.737.242,0,.484-.035.731-.041A7.258,7.258,0,0,1,747.009,578.174Z" transform="translate(-334.088 -329.053)" opacity="0.1"/>
    <path id="Path_274" data-name="Path 274" d="M717.122,598.158a7.259,7.259,0,0,1-6.964-10.218,5.9,5.9,0,0,1,1.539,1.474,24.3,24.3,0,0,0,1.574,2.447,6.573,6.573,0,0,0,5.136,1.769c1.851-.077,3.538-.478,5.307-.59A7.27,7.27,0,0,1,717.122,598.158Z" transform="translate(-321.824 -337.309)" opacity="0.1"/>
    <path id="Path_275" data-name="Path 275" d="M718.946,625.066a7.258,7.258,0,0,1-13.7-2.948,7.073,7.073,0,0,1,.472-2.948,7.247,7.247,0,0,1,1.592,1.421c.69.837,1.144,1.769,1.946,2.577a9.071,9.071,0,0,0,6.008,2.111A30.5,30.5,0,0,0,718.946,625.066Z" transform="translate(-320.063 -350.125)" opacity="0.1"/>
    <path id="Path_276" data-name="Path 276" d="M101.705,537.194c1.539-2.854-.206-6.344-2.211-8.886s-4.458-5.2-4.4-8.426c.077-4.652,5.018-7.406,8.962-9.871a43.808,43.808,0,0,0,8.049-6.486,11.869,11.869,0,0,0,2.471-3.314,13.4,13.4,0,0,0,.743-5.9q-.259-9.959-.985-19.906" transform="translate(-69.682 -290.721)" fill="none" stroke="#3f3d56" stroke-miterlimit="10" stroke-width="4"/>
    <path id="Path_277" data-name="Path 277" d="M130.352,469.031a7.258,7.258,0,0,0-3.626-5.949L125.1,466.3l.053-3.892a7.258,7.258,0,1,0,5.2,6.627Z" transform="translate(-78.199 -285.672)" fill="#427646"/>
    <path id="Path_278" data-name="Path 278" d="M108.946,549.851a7.258,7.258,0,0,1-13.7-2.948,7.076,7.076,0,0,1,.472-2.948,7.264,7.264,0,0,1,13.562.077l-4.534,3.691,4.988-1.179a7.217,7.217,0,0,1-.784,3.308Z" transform="translate(-69.741 -317.363)" fill="#427646"/>
    <path id="Path_279" data-name="Path 279" d="M107.12,523.169a7.258,7.258,0,0,1-2.3-14.24l-.041,2.989,1.645-3.255h0a7.26,7.26,0,1,1,.678,14.505Z" transform="translate(-71.5 -304.774)" fill="#427646"/>
    <path id="Path_280" data-name="Path 280" d="M136.987,503.283a7.258,7.258,0,1,1,3.208-13.562l-1.28,3.538,2.612-2.583a7.258,7.258,0,0,1-4.564,12.6Z" transform="translate(-83.743 -296.616)" fill="#427646"/>
    <path id="Path_281" data-name="Path 281" d="M129.366,473.736c-1.675.183-3.3.7-4.988.808a5.4,5.4,0,0,1-4.587-1.6,23.284,23.284,0,0,1-1.344-2.359,5.166,5.166,0,0,0-1.828-1.722,7.258,7.258,0,1,0,13.562,4.823C129.914,473.689,129.637,473.707,129.366,473.736Z" transform="translate(-78.191 -288.443)" opacity="0.1"/>
    <path id="Path_282" data-name="Path 282" d="M137.01,506.174a7.258,7.258,0,0,1-6.9-10.354,5.371,5.371,0,0,1,1.456,1.462,24.6,24.6,0,0,0,1.439,2.4,5.921,5.921,0,0,0,4.817,1.68c1.751-.088,3.443-.59,5.189-.737.242,0,.484-.035.731-.041A7.258,7.258,0,0,1,137.01,506.174Z" transform="translate(-83.765 -299.507)" opacity="0.1"/>
    <path id="Path_283" data-name="Path 283" d="M107.122,526.158a7.258,7.258,0,0,1-6.964-10.218,5.9,5.9,0,0,1,1.539,1.474,24.318,24.318,0,0,0,1.574,2.447,6.573,6.573,0,0,0,5.136,1.769c1.851-.077,3.538-.478,5.307-.59A7.27,7.27,0,0,1,107.122,526.158Z" transform="translate(-71.502 -307.763)" opacity="0.1"/>
    <path id="Path_284" data-name="Path 284" d="M108.946,553.066a7.258,7.258,0,0,1-13.7-2.948,7.076,7.076,0,0,1,.472-2.948,7.251,7.251,0,0,1,1.592,1.421c.69.837,1.144,1.769,1.946,2.577a9.071,9.071,0,0,0,6.008,2.111A30.5,30.5,0,0,0,108.946,553.066Z" transform="translate(-69.741 -320.579)" opacity="0.1"/>
    <path id="Path_285" data-name="Path 285" d="M503.035,454.833c-1.539-2.848.206-6.339,2.217-8.88s4.452-5.189,4.4-8.426c-.071-4.658-5.012-7.406-8.962-9.871a43.628,43.628,0,0,1-8.043-6.486,11.662,11.662,0,0,1-2.476-3.308,13.588,13.588,0,0,1-.743-5.9q.265-9.959.985-19.906" transform="translate(-231.496 -256.927)" fill="none" stroke="#3f3d56" stroke-miterlimit="10" stroke-width="4"/>
    <path id="Path_286" data-name="Path 286" d="M478.385,386.672a7.252,7.252,0,0,1,3.62-5.949l1.627,3.214-.047-3.892a7.439,7.439,0,0,1,2.388-.289,7.258,7.258,0,1,1-7.589,6.916Z" transform="translate(-226.97 -251.875)" fill="#427646"/>
    <path id="Path_287" data-name="Path 287" d="M499.782,467.45a7.258,7.258,0,1,0-.348-5.843l4.534,3.691-4.988-1.179A7.216,7.216,0,0,0,499.782,467.45Z" transform="translate(-235.425 -283.525)" fill="#427646"/>
    <path id="Path_288" data-name="Path 288" d="M501.6,440.809a7.258,7.258,0,0,0,2.305-14.24l.035,2.99L502.3,426.3h0a7.259,7.259,0,0,0-7.606,6.893,7.172,7.172,0,0,0,.313,2.476A7.252,7.252,0,0,0,501.6,440.809Z" transform="translate(-233.662 -270.976)" fill="#427646"/>
    <path id="Path_289" data-name="Path 289" d="M471.712,420.9a7.258,7.258,0,1,0-3.214-13.562l1.285,3.538-2.641-2.53a7.2,7.2,0,0,0-2.359,5.012,7.023,7.023,0,0,0,.183,2A7.253,7.253,0,0,0,471.712,420.9Z" transform="translate(-221.388 -262.81)" fill="#427646"/>
    <path id="Path_290" data-name="Path 290" d="M479.484,391.376c1.675.183,3.3.7,4.982.808a5.421,5.421,0,0,0,4.593-1.6,23.222,23.222,0,0,0,1.338-2.358,5.182,5.182,0,0,1,1.834-1.722,7.258,7.258,0,1,1-13.562,4.817C478.935,391.323,479.207,391.347,479.484,391.376Z" transform="translate(-227.09 -254.645)" opacity="0.1"/>
    <path id="Path_291" data-name="Path 291" d="M471.858,423.794a7.264,7.264,0,0,0,6.9-10.354A5.4,5.4,0,0,0,477.3,414.9a24.62,24.62,0,0,1-1.439,2.4,5.9,5.9,0,0,1-4.811,1.68c-1.751-.088-3.443-.59-5.189-.737-.242,0-.489-.035-.731-.041A7.252,7.252,0,0,0,471.858,423.794Z" transform="translate(-221.534 -265.701)" opacity="0.1"/>
    <path id="Path_292" data-name="Path 292" d="M501.832,443.8A7.253,7.253,0,0,0,508.8,433.58a5.8,5.8,0,0,0-1.533,1.474,24.32,24.32,0,0,1-1.574,2.447,6.586,6.586,0,0,1-5.142,1.769c-1.857-.077-3.538-.478-5.307-.59a7.253,7.253,0,0,0,6.592,5.118Z" transform="translate(-233.89 -273.965)" opacity="0.1"/>
    <path id="Path_293" data-name="Path 293" d="M500.34,470.706a7.258,7.258,0,0,0,13.237-5.9,6.971,6.971,0,0,0-1.592,1.421c-.69.837-1.179,1.769-1.946,2.577a9.086,9.086,0,0,1-6.014,2.111A31.8,31.8,0,0,1,500.34,470.706Z" transform="translate(-235.983 -286.781)" opacity="0.1"/>
    <circle id="Ellipse_58" data-name="Ellipse 58" cx="58.94" cy="58.94" r="58.94" transform="translate(402.817 81.352)" fill="#35454d"/>
    <circle id="Ellipse_59" data-name="Ellipse 59" cx="58.94" cy="58.94" r="58.94" transform="translate(266.407 167.877)" fill="#827eaa"/>
    <path id="Path_296" data-name="Path 296" d="M611.865,522.353l-17.648,17.954a.319.319,0,0,0,0,.46L606.6,553.934a2.131,2.131,0,1,1-3.013,3.013l-12.318-13.119a.336.336,0,0,0-.472,0l-3,3.031a13.19,13.19,0,0,1-9.434,3.968,13.479,13.479,0,0,1-9.6-4.08L565.88,543.8a.336.336,0,0,0-.472,0l-12.288,13.09a2.131,2.131,0,1,1-3.013-3.013l12.335-13.137a.354.354,0,0,0,0-.46l-17.648-17.955a.324.324,0,0,0-.554.23V558.48a5.26,5.26,0,0,0,5.242,5.242h57.708a5.26,5.26,0,0,0,5.242-5.242v-35.9a.324.324,0,0,0-.566-.23Z" transform="translate(-253.998 -310.343)" fill="#0a0550"/>
    <path id="Path_297" data-name="Path 297" d="M579.744,542.625a8.927,8.927,0,0,0,6.439-2.653l25.7-26.162a5.13,5.13,0,0,0-3.243-1.179H550.893a5.1,5.1,0,0,0-3.243,1.179l25.708,26.162A8.892,8.892,0,0,0,579.744,542.625Z" transform="translate(-255.397 -306.405)" fill="#0a0550"/>
    <circle id="Ellipse_60" data-name="Ellipse 60" cx="58.94" cy="58.94" r="58.94" transform="translate(125.528 126.86)" fill="#1c1458"/>
    <path id="Path_299" data-name="Path 299" d="M348.5,430.16,325,484.371l2.193,2.193,21.309-9.4,21.309,9.4,2.193-2.193Z" transform="translate(-164.029 -272.562)" fill="#6e66ef"/>
    <path id="Path_301" data-name="Path 301" d="M821.342,586.062q-.8-1.958-1.645-3.9a11.586,11.586,0,0,0-2.011-3.473,3.679,3.679,0,0,0-1.179-.885,5.026,5.026,0,0,0-1.539-.307,12.291,12.291,0,0,0-2.417-.065c-.313-.094-.666-.218-1.014-.36a8.42,8.42,0,0,0,6.274-7.813v-.36a8.4,8.4,0,0,0-8.367-8.438,8.256,8.256,0,0,0-4.393,1.256,7.883,7.883,0,0,0-8.844,4.263,9.746,9.746,0,0,0-3.007,7.252v.371c.153,4.582,3.113,8.255,6.852,8.626a3.928,3.928,0,0,0-1.085.725c-1.144,1.1-1.333,2.854-1.456,4.446l-.088,1.179-1.981.708a.366.366,0,0,0-.088.643l1.893,1.35v.336a1.468,1.468,0,0,0,.036.383,2.7,2.7,0,0,0-.731,1.044,4.819,4.819,0,0,0-.171,1.91l.071,1.645a12.919,12.919,0,0,0,.5,3.662c.248.731,1.321,2.494,2.093,2.506a76.274,76.274,0,0,0-.9,10.083c-.089.089.159.171.59.242.425,3.255,1.81,12.382,4.269,16.4a34.583,34.583,0,0,1,.926,3.986s.7,8.674,1.627,11.25c.79,2.193,1.415,7.606,1.586,9.175a.9.9,0,0,0-.654.672c-.466,1.4-3.485,3.538-3.485,3.538a14.6,14.6,0,0,0-2.606,1.669c-.949.855-.914,1.627,3.3,1.144,8.137-.937,9.529-3.538,9.529-3.538s-.13-.436-.324-1a10.889,10.889,0,0,0-1.067-2.518c-.118-.112-.236.077-.378.372a50.5,50.5,0,0,1-.554-11.386,18.474,18.474,0,0,0-.932-6.8,12.873,12.873,0,0,1,0-4.452c.466-1.875-1.857-11.02-1.857-11.02l-1.333-6.734a1.933,1.933,0,0,1,.372.784l.035.135.035.195a.364.364,0,0,0,.094.183c.908,3.774,3.4,14.228,3.4,15.761,0,1.875,2.323,6.563,2.323,6.563s.926,7.736,2.553,10.779c1.238,2.317,1.268,5.714,1.209,7.211h0a6.68,6.68,0,0,1-.743,2.394,5.687,5.687,0,0,0-.879,1.527l-.053.112s-.7,1.409-.23,1.645a11.421,11.421,0,0,0,5.578.7s.932-1.179.932-1.639a7.371,7.371,0,0,0-.106-.837c-.171-1.108-.489-2.854-.5-2.871a8.047,8.047,0,0,0-.59-2.854l-.236-6.563a30.3,30.3,0,0,0-1.627-13.131s-1.179-4.216-.926-5.389-.466-13.6-.466-13.6l-.071-.177a13.444,13.444,0,0,1,.071-2.636,35.008,35.008,0,0,0-.932-8.9,7.729,7.729,0,0,1-.33-1.94c.053-.489.212-1.922.43-3.7a66.569,66.569,0,0,0,6.852-.59.855.855,0,0,0,.59-.236.824.824,0,0,0,.135-.478C823.972,592.76,822.68,589.328,821.342,586.062Zm-4.676,7.435c.242-1.681.5-3.308.761-4.517l.035.106a32.776,32.776,0,0,1,1.12,3.715A12.639,12.639,0,0,1,816.666,593.5Z" transform="translate(-356.161 -326.032)" fill="url(#linear-gradient)"/>
    <path id="Path_302" data-name="Path 302" d="M802.37,648.36s1.391,12.518,4.4,17.382a33.712,33.712,0,0,1,.926,3.939s.7,8.573,1.622,11.12,1.621,9.5,1.621,9.5,3.243,3.7,4.4.7a48.834,48.834,0,0,1-.7-12.052,18.151,18.151,0,0,0-.926-6.722,12.567,12.567,0,0,1,0-4.4c.46-1.857-1.858-10.891-1.858-10.891l-1.851-9.039Z" transform="translate(-359.925 -361.915)" fill="#be6f72"/>
    <path id="Path_303" data-name="Path 303" d="M817.877,722.485s-1.391,2.547-9.5,3.473c-4.21.478-4.24-.283-3.29-1.132a14.681,14.681,0,0,1,2.594-1.651s3.013-2.081,3.473-3.473,2.087-.23,2.087-.23c2.317,3.473,2.783-.932,3.243-.466a10.452,10.452,0,0,1,1.067,2.482C817.747,722.048,817.877,722.485,817.877,722.485Z" transform="translate(-360.833 -391.08)" fill="#e8e8e8"/>
    <path id="Path_304" data-name="Path 304" d="M817.877,724.236s-1.391,2.547-9.5,3.473c-4.21.478-4.24-.283-3.29-1.132.66.419,1.993.59,4.676-.489,3.862-1.58,6.663-2.494,7.789-2.848C817.747,723.8,817.877,724.236,817.877,724.236Z" transform="translate(-360.833 -392.832)" opacity="0.1"/>
    <path id="Path_305" data-name="Path 305" d="M818.858,678.95a18.153,18.153,0,0,0-.926-6.722,12.575,12.575,0,0,1,0-4.4c.46-1.857-1.857-10.891-1.857-10.891l-1.851-9.039-1.6.094,1.834,8.945s2.317,9.033,1.857,10.891a12.57,12.57,0,0,0,0,4.4,17.622,17.622,0,0,1,.926,6.722,48.835,48.835,0,0,0,.7,12.052,2.028,2.028,0,0,1-.672.955,1.515,1.515,0,0,0,2.294-.955A48.835,48.835,0,0,1,818.858,678.95Z" transform="translate(-364.131 -361.915)" opacity="0.1"/>
    <path id="Path_306" data-name="Path 306" d="M809.349,562.42a8.254,8.254,0,0,0-4.375,1.244,7.872,7.872,0,0,0-8.845,4.216,9.6,9.6,0,0,0-3,7.17c0,4.929,3.32,8.921,7.412,8.921,2.948,0,5.531-2.1,6.716-5.136a8.139,8.139,0,0,0,2.087.271,8.343,8.343,0,1,0,0-16.687Z" transform="translate(-356.132 -326.837)" fill="#3f3d56"/>
    <path id="Path_307" data-name="Path 307" d="M825.764,650.65l.7,1.852s.7,12.282.46,13.444.932,5.307.932,5.307a29.665,29.665,0,0,1,1.621,12.972l.23,6.486s.926,2.547.466,3.013-3.957-.413-3.957-.413.466-4.865-1.179-7.878-2.547-10.661-2.547-10.661-2.317-4.634-2.317-6.486-3.709-16.917-3.709-16.917Z" transform="translate(-365.707 -363.043)" fill="#be6f72"/>
    <path id="Path_308" data-name="Path 308" d="M801.568,640.108s.236-8.343,1.179-10.89a17.286,17.286,0,0,0,1.032-3.7s14.027,2.535,15.189,1.61a20.12,20.12,0,0,0,.466,3.473,33.318,33.318,0,0,1,.926,8.809c-.254,2.783,0,2.777,0,2.777s-9.505,1.392-9.735,0-.926-1.385-.926-1.385S801.108,640.544,801.568,640.108Z" transform="translate(-359.588 -352.731)" fill="#3f3d56"/>
    <g id="Group_49" data-name="Group 49" transform="translate(441.979 274.399)" opacity="0.1">
      <path id="Path_309" data-name="Path 309" d="M809.227,649.928s-5.861-.159-7.63-.478v.478c-.46.46,8.113.7,8.113.7a.589.589,0,0,1,.318.13C809.717,649.928,809.227,649.928,809.227,649.928Z" transform="translate(-801.58 -636.95)"/>
      <path id="Path_310" data-name="Path 310" d="M825.67,631.723a20.109,20.109,0,0,1-.466-3.473,1,1,0,0,1-.4.141,11.723,11.723,0,0,0,.4,2.636,36.807,36.807,0,0,1,.926,8.809c-.254,2.783,0,2.777,0,2.777s-7.518,1.1-9.34.365a2.758,2.758,0,0,0,.071.33c.23,1.392,9.735,0,9.735,0s-.236,0,0-2.777A34.449,34.449,0,0,0,825.67,631.723Z" transform="translate(-807.821 -628.25)"/>
      <path id="Path_311" data-name="Path 311" d="M809.227,649.928s-5.861-.159-7.63-.478v.478c-.46.46,8.113.7,8.113.7a.589.589,0,0,1,.318.13C809.717,649.928,809.227,649.928,809.227,649.928Z" transform="translate(-801.58 -636.95)"/>
      <path id="Path_312" data-name="Path 312" d="M825.67,631.723a20.109,20.109,0,0,1-.466-3.473,1,1,0,0,1-.4.141,11.723,11.723,0,0,0,.4,2.636,36.807,36.807,0,0,1,.926,8.809c-.254,2.783,0,2.777,0,2.777s-7.518,1.1-9.34.365a2.758,2.758,0,0,0,.071.33c.23,1.392,9.735,0,9.735,0s-.236,0,0-2.777A34.449,34.449,0,0,0,825.67,631.723Z" transform="translate(-807.821 -628.25)"/>
    </g>
    <path id="Path_313" data-name="Path 313" d="M815.428,585.522a3.073,3.073,0,0,0,.885,1.144,1.98,1.98,0,0,0,.831.36c-.519.3-1.085.525-1.6.826a28.548,28.548,0,0,0-2.359,1.769,4.8,4.8,0,0,1-2.706,1.05,3.314,3.314,0,0,0,.377-3.3,3.076,3.076,0,0,1-.413-1.144,2.055,2.055,0,0,1,1.138-1.533c.442-.3.9-.59,1.356-.879.36-.224.9-.7,1.356-.678s.507.419.59.831A6.536,6.536,0,0,0,815.428,585.522Z" transform="translate(-363.237 -335.339)" fill="#be6f72"/>
    <path id="Path_314" data-name="Path 314" d="M815.428,585.522a3.073,3.073,0,0,0,.885,1.144,1.98,1.98,0,0,0,.831.36c-.519.3-1.085.525-1.6.826a28.548,28.548,0,0,0-2.359,1.769,4.8,4.8,0,0,1-2.706,1.05,3.314,3.314,0,0,0,.377-3.3,3.076,3.076,0,0,1-.413-1.144,2.055,2.055,0,0,1,1.138-1.533c.442-.3.9-.59,1.356-.879.36-.224.9-.7,1.356-.678s.507.419.59.831A6.536,6.536,0,0,0,815.428,585.522Z" transform="translate(-363.237 -335.339)" opacity="0.1"/>
    <circle id="Ellipse_61" data-name="Ellipse 61" cx="5.33" cy="5.33" r="5.33" transform="translate(452.292 253.196)" fill="#be6f72"/>
    <path id="Path_315" data-name="Path 315" d="M836.254,725.8c0,.466-.926,1.621-.926,1.621a11.476,11.476,0,0,1-5.56-.7c-.466-.23.23-1.622.23-1.622l.053-.112a5.621,5.621,0,0,1,.879-1.51,6.6,6.6,0,0,0,.737-2.359c1.439-2.359,3.992,1.02,3.992,1.02s.324,1.769.5,2.842A8.092,8.092,0,0,1,836.254,725.8Z" transform="translate(-371.102 -391.622)" fill="#e8e8e8"/>
    <path id="Path_316" data-name="Path 316" d="M836.254,729.065c0,.466-.926,1.621-.926,1.621a11.473,11.473,0,0,1-5.56-.7c-.466-.23.23-1.621.23-1.621l.053-.112A11.2,11.2,0,0,0,835.1,729.3l1.055-1.055C836.213,728.635,836.254,728.948,836.254,729.065Z" transform="translate(-371.102 -394.883)" opacity="0.1"/>
    <circle id="Ellipse_62" data-name="Ellipse 62" cx="5.212" cy="5.212" r="5.212" transform="translate(441.749 242.187)" fill="#be6f72"/>
    <path id="Path_317" data-name="Path 317" d="M801.725,599.17c-1.144,1.091-1.333,2.818-1.45,4.393l-.177,2.305a11.628,11.628,0,0,0-.041,1.869c0,.383.094.773.13,1.179s.047.92.053,1.386v3.408a4.02,4.02,0,0,0,.377,2.046,1.392,1.392,0,0,0,1.769.637,2.016,2.016,0,0,0,.731-1.132,17.6,17.6,0,0,0,1.179-4.316c.047-.513.053-1.026.1-1.539s.136-1.05.212-1.568c.33-2.17.478-4.363.625-6.551.041-.649.625-3.2-.224-3.485-.413-.136-1.268.289-1.663.43a4.68,4.68,0,0,0-1.621.938Z" transform="translate(-358.967 -341.345)" fill="#be6f72"/>
    <path id="Path_318" data-name="Path 318" d="M801.725,599.17c-1.144,1.091-1.333,2.818-1.45,4.393l-.177,2.305a11.628,11.628,0,0,0-.041,1.869c0,.383.094.773.13,1.179s.047.92.053,1.386v3.408a4.02,4.02,0,0,0,.377,2.046,1.392,1.392,0,0,0,1.769.637,2.016,2.016,0,0,0,.731-1.132,17.6,17.6,0,0,0,1.179-4.316c.047-.513.053-1.026.1-1.539s.136-1.05.212-1.568c.33-2.17.478-4.363.625-6.551.041-.649.625-3.2-.224-3.485-.413-.136-1.268.289-1.663.43a4.68,4.68,0,0,0-1.621.938Z" transform="translate(-358.967 -341.345)" opacity="0.1"/>
    <path id="Path_319" data-name="Path 319" d="M814.352,588.16s-3.939,3.013-6.256,3.709c0,0-1.374,1.568-1.61,1.946s-.707,4.54-1.179,5.472-1.621,3.013,0,5.094a8.832,8.832,0,0,1,.23,2.783c-.23.7-1.073,3.243-.307,3.361s3.09,1.734,5.171,1.274,9.853,1.769,9.853,1.769,1.285-11.94,2.217-14.051l-2.087-.7s-5.79-3.473-2.317-8.8C818.061,590.017,814.806,589.322,814.352,588.16Z" transform="translate(-360.787 -337.4)" fill="#cbcbcb"/>
    <path id="Path_320" data-name="Path 320" d="M796.737,610.785l4.788,3.39a.353.353,0,0,0,.419,0l1.3-.973a.366.366,0,0,0,0-.554l-3.685-3.273a.354.354,0,0,0-.36-.071l-2.365.849a.36.36,0,0,0-.094.631Z" transform="translate(-357.553 -346.068)" fill="#3f3d56"/>
    <path id="Path_321" data-name="Path 321" d="M799.151,622.8a12.828,12.828,0,0,1-.5-3.615l-.071-1.633a4.719,4.719,0,0,1,.171-1.887,3.084,3.084,0,0,1,1.987-1.739,6.863,6.863,0,0,1,2.706-.195.7.7,0,0,1,.348.094.649.649,0,0,1,.189.318,2.136,2.136,0,0,1,.106,1.7,1.771,1.771,0,0,1-.542.56c-.643.46-1.392.766-2,1.268a.725.725,0,0,0-.271.342.8.8,0,0,0,0,.371,5.953,5.953,0,0,0,.307.949.939.939,0,0,0,.265.4c.112.094.259.13.377.218.253.206.784.478.755.8a26.423,26.423,0,0,1-1.073,3.668C801.374,626.709,799.493,623.8,799.151,622.8Z" transform="translate(-358.358 -347.87)" fill="#be6f72"/>
    <g id="Group_50" data-name="Group 50" transform="translate(448.111 261.769)" opacity="0.1">
      <path id="Path_322" data-name="Path 322" d="M812.11,628.211h-.13a3.97,3.97,0,0,0,1.515,0h.147A5.31,5.31,0,0,0,812.11,628.211Z" transform="translate(-811.98 -615.581)"/>
      <path id="Path_323" data-name="Path 323" d="M831.246,606.83c-.831,1.869-2.058,11.993-2.276,14,.814.212,1.35.366,1.35.366s1.274-11.911,2.205-14.021Z" transform="translate(-818.952 -606.83)"/>
    </g>
    <path id="Path_324" data-name="Path 324" d="M821.644,597.186a1.768,1.768,0,0,0,.761,1.15,10.2,10.2,0,0,1,1.35,1.368,9.681,9.681,0,0,1,1.339,2.683,32.869,32.869,0,0,1,1.114,3.668c-2.948,1.368-6.3,1.3-9.434,2.205a7.529,7.529,0,0,0-3.538,2.093,4.876,4.876,0,0,0-1.3,3.839.5.5,0,0,0,.071.23.5.5,0,0,0,.413.165,3.537,3.537,0,0,0,2.164-.743,10.3,10.3,0,0,0,1.657-1.627,2.665,2.665,0,0,1,1.179-.873,19.3,19.3,0,0,1,5.307-.519,66.9,66.9,0,0,0,7.907-.625.637.637,0,0,0,.708-.708c.259-3.479-1.032-6.875-2.359-10.1q-.8-1.94-1.639-3.862a11.436,11.436,0,0,0-2-3.432,3.536,3.536,0,0,0-1.179-.873,4.986,4.986,0,0,0-1.58-.295,11.2,11.2,0,0,0-2.588-.047,5.518,5.518,0,0,0-.248,1.339,11.6,11.6,0,0,0,1.427,4.523C821.255,596.962,821.508,596.974,821.644,597.186Z" transform="translate(-363.839 -338.495)" fill="#be6f72"/>
    <path id="Path_325" data-name="Path 325" d="M812,606.67a4.323,4.323,0,0,0-.59,2.252,3.033,3.033,0,0,0,.148.92,2.983,2.983,0,0,0,1.881,1.769" transform="translate(-363.634 -344.995)" fill="none" stroke="#000" stroke-miterlimit="10" stroke-width="1" opacity="0.1"/>
    <path id="Path_326" data-name="Path 326" d="M810.072,572.527a2.7,2.7,0,0,0-.855.136,5.653,5.653,0,0,0-4.717-1.993c-2.818,0-5.1,1.456-5.1,3.249s2.282,3.243,5.1,3.243a7.172,7.172,0,0,0,3.06-.649,2.777,2.777,0,1,0,2.5-3.986Z" transform="translate(-358.706 -330.222)" fill="#3f3d56"/>
    <path id="Path_327" data-name="Path 327" d="M810.294,578.943a2.771,2.771,0,0,1-2.5-1.575,7.177,7.177,0,0,1-3.06.649c-2.812,0-5.094-1.451-5.094-3.243a1.944,1.944,0,0,1,0-.324,2.2,2.2,0,0,0-.259,1.02c0,1.769,2.282,3.243,5.1,3.243a7.174,7.174,0,0,0,3.06-.649,2.777,2.777,0,0,0,5.23-.69,2.766,2.766,0,0,1-2.477,1.568Z" transform="translate(-358.698 -331.773)" opacity="0.1"/>
    <path id="Path_328" data-name="Path 328" d="M796.119,569.248a7.871,7.871,0,0,1,8.844-4.216,8.337,8.337,0,0,1,12.689,6.4v-.7a8.337,8.337,0,0,0-12.718-7.076,7.872,7.872,0,0,0-8.845,4.216,9.6,9.6,0,0,0-3,7.17v.7A9.435,9.435,0,0,1,796.119,569.248Z" transform="translate(-356.115 -326.837)" opacity="0.1"/>
    <path id="Path_329" data-name="Path 329" d="M883.785,533.308c1.539-2.848-.206-6.344-2.217-8.886s-4.452-5.183-4.4-8.426c.071-4.652,5.012-7.4,8.963-9.87a43.572,43.572,0,0,0,8.043-6.486,11.752,11.752,0,0,0,2.477-3.308,13.59,13.59,0,0,0,.743-5.9q-.259-9.965-.985-19.906" transform="translate(-390.62 -289.128)" fill="none" stroke="#3f3d56" stroke-miterlimit="10" stroke-width="4"/>
    <path id="Path_330" data-name="Path 330" d="M912.422,465.115a7.246,7.246,0,0,0-3.62-5.944l-1.627,3.214.047-3.892a7.123,7.123,0,0,0-2.388-.289,7.258,7.258,0,1,0,7.589,6.911Z" transform="translate(-399.133 -284.067)" fill="#427646"/>
    <path id="Path_331" data-name="Path 331" d="M891.026,545.9a7.258,7.258,0,1,1,.348-5.849l-4.534,3.691,4.988-1.179A7.219,7.219,0,0,1,891.026,545.9Z" transform="translate(-390.678 -315.716)" fill="#427646"/>
    <path id="Path_332" data-name="Path 332" d="M889.2,519.254a7.258,7.258,0,0,1-2.305-14.24L886.854,508l1.645-3.249h0a7.26,7.26,0,1,1,.678,14.505Z" transform="translate(-392.433 -303.17)" fill="#427646"/>
    <path id="Path_333" data-name="Path 333" d="M919.061,499.373a7.258,7.258,0,1,1,3.214-13.562l-1.285,3.538,2.641-2.535a7.217,7.217,0,0,1,2.359,5.012,7.01,7.01,0,0,1-.183,2A7.259,7.259,0,0,1,919.061,499.373Z" transform="translate(-404.681 -295.011)" fill="#427646"/>
    <path id="Path_334" data-name="Path 334" d="M911.444,469.816c-1.675.189-3.308.708-4.988.814a5.408,5.408,0,0,1-4.593-1.61,22.538,22.538,0,0,1-1.339-2.359,5.219,5.219,0,0,0-1.828-1.722,7.258,7.258,0,1,0,13.562,4.817C911.986,469.769,911.715,469.787,911.444,469.816Z" transform="translate(-399.127 -286.834)" opacity="0.1"/>
    <path id="Path_335" data-name="Path 335" d="M919.082,502.264a7.264,7.264,0,0,1-6.9-10.354,5.373,5.373,0,0,1,1.462,1.456,23.234,23.234,0,0,0,1.439,2.4,5.906,5.906,0,0,0,4.811,1.686c1.751-.083,3.444-.59,5.189-.737.242,0,.489-.041.731-.047A7.258,7.258,0,0,1,919.082,502.264Z" transform="translate(-404.701 -297.902)" opacity="0.1"/>
    <path id="Path_336" data-name="Path 336" d="M889.2,522.23A7.253,7.253,0,0,1,882.232,512a5.984,5.984,0,0,1,1.533,1.474c.59.8.914,1.716,1.574,2.447a6.719,6.719,0,0,0,5.142,1.8c1.857-.041,3.538-.484,5.307-.619A7.258,7.258,0,0,1,889.2,522.23Z" transform="translate(-392.434 -306.146)" opacity="0.1"/>
    <path id="Path_337" data-name="Path 337" d="M891.054,549.156a7.264,7.264,0,0,1-13.237-5.9,7.114,7.114,0,0,1,1.592,1.421c.7.843,1.15,1.769,1.946,2.583a9.117,9.117,0,0,0,6.014,2.111,31.836,31.836,0,0,0,3.685-.218Z" transform="translate(-390.707 -318.974)" opacity="0.1"/>
    <path id="Path_338" data-name="Path 338" d="M1042.785,685.308c1.539-2.848-.207-6.344-2.217-8.886s-4.452-5.183-4.4-8.426c.071-4.652,5.012-7.4,8.962-9.87a43.581,43.581,0,0,0,8.043-6.486,11.753,11.753,0,0,0,2.476-3.308,13.584,13.584,0,0,0,.743-5.9q-.253-9.965-.985-19.906" transform="translate(-455.868 -351.504)" fill="none" stroke="#3f3d56" stroke-miterlimit="10" stroke-width="4"/>
    <path id="Path_339" data-name="Path 339" d="M1071.443,617.115a7.246,7.246,0,0,0-3.621-5.944l-1.627,3.214.047-3.891a7.121,7.121,0,0,0-2.359-.289,7.258,7.258,0,1,0,7.589,6.911Z" transform="translate(-464.401 -346.443)" fill="#427646"/>
    <path id="Path_340" data-name="Path 340" d="M1050.026,697.9a7.258,7.258,0,1,1,.348-5.849l-4.534,3.691,4.988-1.179A7.213,7.213,0,0,1,1050.026,697.9Z" transform="translate(-455.926 -378.091)" fill="#427646"/>
    <path id="Path_341" data-name="Path 341" d="M1048.2,671.254a7.258,7.258,0,0,1-2.306-14.24l-.035,2.989,1.645-3.249h0a7.26,7.26,0,1,1,.678,14.505Z" transform="translate(-457.681 -365.545)" fill="#427646"/>
    <path id="Path_342" data-name="Path 342" d="M1078.061,651.373a7.258,7.258,0,1,1,3.213-13.562l-1.285,3.538,2.642-2.536a7.218,7.218,0,0,1,2.358,5.012,7.01,7.01,0,0,1-.183,2A7.258,7.258,0,0,1,1078.061,651.373Z" transform="translate(-469.929 -357.387)" fill="rgba(124,255,99,0.47)"/>
    <path id="Path_343" data-name="Path 343" d="M1070.444,621.816c-1.675.189-3.308.708-4.988.814a5.408,5.408,0,0,1-4.594-1.61,22.577,22.577,0,0,1-1.338-2.359,5.216,5.216,0,0,0-1.828-1.722,7.258,7.258,0,1,0,13.562,4.817C1070.987,621.769,1070.715,621.787,1070.444,621.816Z" transform="translate(-464.375 -349.21)" fill="#427646" opacity="0.1"/>
    <path id="Path_344" data-name="Path 344" d="M1078.082,654.264a7.264,7.264,0,0,1-6.9-10.354,5.375,5.375,0,0,1,1.462,1.456,23.3,23.3,0,0,0,1.439,2.4,5.906,5.906,0,0,0,4.812,1.686c1.751-.083,3.443-.59,5.189-.737.242,0,.489-.041.731-.047A7.258,7.258,0,0,1,1078.082,654.264Z" transform="translate(-469.949 -360.277)" opacity="0.1"/>
    <path id="Path_345" data-name="Path 345" d="M1048.2,674.23a7.252,7.252,0,0,1-6.964-10.23,5.983,5.983,0,0,1,1.533,1.474c.59.8.914,1.716,1.574,2.447a6.718,6.718,0,0,0,5.142,1.8c1.857-.041,3.538-.484,5.307-.619A7.258,7.258,0,0,1,1048.2,674.23Z" transform="translate(-457.682 -368.522)" opacity="0.1"/>
    <path id="Path_346" data-name="Path 346" d="M1050.055,701.156a7.264,7.264,0,0,1-13.237-5.9,7.113,7.113,0,0,1,1.592,1.421c.7.843,1.179,1.769,1.946,2.583a9.116,9.116,0,0,0,6.014,2.111A31.75,31.75,0,0,0,1050.055,701.156Z" transform="translate(-455.955 -381.349)" opacity="0.1"/>
    <path id="Path_347" data-name="Path 347" d="M474.98,576.387a5.784,5.784,0,0,0-2.305-4.67,6.781,6.781,0,0,0-5.666-6.651,6.769,6.769,0,0,0-4.511-5.041h0a5.756,5.756,0,0,0-.837-.195h-1a6.639,6.639,0,0,0-6.415,5.672c-2.07-.478-3.962.142-4.31,1.451A1.769,1.769,0,0,0,450,568a4.563,4.563,0,0,0,3.043,2.465l.2.059.3.077h.065a5.214,5.214,0,0,0-.5,2.235,5.154,5.154,0,0,0,2.777,4.6l-.136.083a1.839,1.839,0,0,0-.448.625,9.353,9.353,0,0,0-.867,2.087c-.147.625-.171,1.274-.354,1.893-.342,1.138-1.215,2.1-1.315,3.284-.047.531.041,1.179-.336,1.521a1.837,1.837,0,0,1-.3.212,2.434,2.434,0,0,0-.654.69,2.288,2.288,0,0,1-.46.66c-.342.254-.9.23-1.067.625s.265.861.165,1.291-.466.513-.731.755a2.624,2.624,0,0,0-.631,1.179,3.869,3.869,0,0,1-3.184-.814,5.945,5.945,0,0,1,.33,1.179,5.16,5.16,0,0,0-1.716-.861,5.417,5.417,0,0,1-1.828-1.356l.979-.136-4.322-6.6-1.28-.265,1.144,2.2a.7.7,0,0,0-.389.466,2,2,0,0,0-.041.749,13.4,13.4,0,0,0,.295,1.769l.33,1.545c.029.142.065.289.106.43a4.067,4.067,0,0,0-1.28.141,11.141,11.141,0,0,0-2.659-.631,1.471,1.471,0,0,0-.59,0,1.528,1.528,0,0,0-.56.454,18.137,18.137,0,0,0-1.975,2.783c-2.359,4.045-5.431,7.577-8.337,11.233-2,.814-4.027,1.586-6.05,2.359l-4.352,1.663a6.6,6.6,0,0,1-2.7.59c-.413,0-.926-.089-1.179.265a2.483,2.483,0,0,0-.265.59l-.448.047h0a5.154,5.154,0,0,0-1.044-1.922.66.66,0,0,0-.489.377c-.106.195-.171.407-.295.59-.23.342-.637.507-.926.8s-.472.737-.79,1.032a3.126,3.126,0,0,1-1.48.59,9.338,9.338,0,0,0-2.317.879,3.74,3.74,0,0,1-.855.4,3.213,3.213,0,0,1-1.008.035l-2.3-.171a1.817,1.817,0,0,0-.619.03,1.179,1.179,0,0,0-.731,1.179,1.858,1.858,0,0,0,.731,1.268,4.684,4.684,0,0,0,1.309.678,38.423,38.423,0,0,0,6.132,1.816v.466a10.465,10.465,0,0,0,4.717,1.12.732.732,0,0,0,.354-.065.779.779,0,0,0,.295-.46,18.969,18.969,0,0,0,.92-4.517h0a2.361,2.361,0,0,0,.831-.212c.79-.218,1.58.324,2.4.413a6.555,6.555,0,0,0,2.9-.837l.413-.136a4.525,4.525,0,0,1-.955.914c-.4.283-.837.5-1.221.79a8.412,8.412,0,0,1-1.038.8,6.514,6.514,0,0,1-.8.307,5.257,5.257,0,0,0-1.138.59,2.3,2.3,0,0,0-.772.755,1.132,1.132,0,0,0-.065,1.061,1.12,1.12,0,0,0,.761.531,3.118,3.118,0,0,0,.938,0c1.25-.094,2.494-.206,3.738-.318a9.964,9.964,0,0,0,1.563-.224c.271-.065.542-.153.814-.23a7.249,7.249,0,0,1,1.421-.212,1.179,1.179,0,0,1,.413.041c.289.094.5.389.79.448a1.177,1.177,0,0,0,.59-.077,13.154,13.154,0,0,1,2.765-.295,1.141,1.141,0,0,0,1.073-.478c.189-.377-.153-.985-.307-1.486a4.551,4.551,0,0,1-.13-.979,6.128,6.128,0,0,0-.684-2.323,6.064,6.064,0,0,1-.513-1.061,26.812,26.812,0,0,0,5.089-2.583,9.1,9.1,0,0,1,2.9-1.4,7.89,7.89,0,0,1,3.644.425,82.933,82.933,0,0,1,8.355,2.913c1.3.537,2.6,1.1,3.945,1.51a6.148,6.148,0,0,0,1.4,1.362,6.486,6.486,0,0,0,3.037.831,39.818,39.818,0,0,0,4.275.159,7.211,7.211,0,0,0,3.184-.59,3.276,3.276,0,0,0,.666-.442,2.642,2.642,0,0,0,2.1-.772,5.089,5.089,0,0,0,1.6-2.524c.348-1.344.083-2.948.908-4.021.218-.295.507-.531.725-.825a2.324,2.324,0,0,0,.377-1.362.272.272,0,0,1,.035-.053,5,5,0,0,0,.354-1.356,7.763,7.763,0,0,1,.383-1.073,33.156,33.156,0,0,0,1.1-3.178,18.572,18.572,0,0,0,.507-2.182c.088-.59.141-1.179.189-1.769a10.987,10.987,0,0,1,.536-2.73,22.217,22.217,0,0,0,1.238-6.533v-.13a4.381,4.381,0,0,0,3.88-4.458,4.652,4.652,0,0,0-.407-1.9A5.9,5.9,0,0,0,474.98,576.387Zm-21.1,25.632c.065.23.141.454.218.678-.348-.336-.684-.684-1.032-1.026.136.047.277.089.407.142a2.185,2.185,0,0,1,.389.206Zm-1.669-1.132c-2.04-1.769-4.4-3.143-6.486-4.859,1.138.56,2.247,1.215,3.343,1.84q1.952,1.114,3.956,2.14a3.237,3.237,0,0,1-.831.879Zm.867-4.458.1-.1v.7l-.548-.189a4.882,4.882,0,0,0,.43-.413ZM435.138,601.2a16.881,16.881,0,0,0,2.17-3.1,20.846,20.846,0,0,0,3.237,3.615C438.747,601.494,436.943,601.3,435.138,601.2Z" transform="translate(-193.134 -325.774)" fill="url(#linear-gradient-2)"/>
    <path id="Path_348" data-name="Path 348" d="M415.35,438.25l1.285.259,4.381,6.48-1.928.259Z" transform="translate(-170.445 -179.989)" fill="#2f2e41"/>
    <path id="Path_349" data-name="Path 349" d="M414.49,645.415a25.225,25.225,0,0,0,1.285,3.343,31.839,31.839,0,0,0,4.275-1.221,13.467,13.467,0,0,0-.89-1.179,4.4,4.4,0,0,0-1.209-.926,3.326,3.326,0,0,0-1.468,0C415.823,645.415,415.156,645.427,414.49,645.415Z" transform="translate(-200.753 -360.869)" fill="#fbbebe"/>
    <path id="Path_350" data-name="Path 350" d="M410.291,645.85a2.665,2.665,0,0,1-1.462-1.663,5.355,5.355,0,0,0-1.114-1.987.637.637,0,0,0-.5.371c-.106.189-.171.4-.289.59-.236.336-.649.5-.943.784s-.472.725-.79,1.014a3.136,3.136,0,0,1-1.492.59,9.669,9.669,0,0,0-2.359.867,4.075,4.075,0,0,1-.867.389,3.436,3.436,0,0,1-1.014,0l-2.323-.165a1.81,1.81,0,0,0-.59,0,1.126,1.126,0,0,0-.737,1.179,1.769,1.769,0,0,0,.737,1.25,4.9,4.9,0,0,0,1.321.672,38.872,38.872,0,0,0,6.227,1.769v.46a10.779,10.779,0,0,0,4.747,1.1.8.8,0,0,0,.354-.059.778.778,0,0,0,.295-.46,18.4,18.4,0,0,0,.973-5.047,4.024,4.024,0,0,0-.1-1.3c-.13-.419.307-.242-.094-.407" transform="translate(-193.087 -359.576)" fill="#fff"/>
    <path id="Path_351" data-name="Path 351" d="M464.1,632.261c-6.887.413-13.691-1.6-20.59-1.816a10.054,10.054,0,0,0-2.559.159,12.893,12.893,0,0,0-2.535.985c-3.7,1.722-7.524,3.149-11.345,4.57l-4.393,1.633a6.653,6.653,0,0,1-2.718.59c-.419,0-.932-.089-1.179.259-.713,1.061-.377,2.612.094,3.8.153.383.413.8.826.843a2.4,2.4,0,0,0,.837-.212c.8-.212,1.592.324,2.418.413a6.791,6.791,0,0,0,2.919-.825,25.32,25.32,0,0,1,5-.849,22.4,22.4,0,0,0,7.83-3.249,9.137,9.137,0,0,1,2.919-1.38,8.078,8.078,0,0,1,3.673.419,84.327,84.327,0,0,1,8.426,2.866,39.267,39.267,0,0,0,4.4,1.61,15.921,15.921,0,0,0,9.865-.59c1.1-.436,2.3-1.179,2.359-2.394.041-.678-.489-1.274-.837-1.857-.224-.371-.454-.743-.7-1.1C467.635,634.425,466.2,632.137,464.1,632.261Z" transform="translate(-202.346 -354.743)" fill="#2f2e41"/>
    <path id="Path_352" data-name="Path 352" d="M464.1,632.261c-6.887.413-13.691-1.6-20.59-1.816a10.054,10.054,0,0,0-2.559.159,12.893,12.893,0,0,0-2.535.985c-3.7,1.722-7.524,3.149-11.345,4.57l-4.393,1.633a6.653,6.653,0,0,1-2.718.59c-.419,0-.932-.089-1.179.259-.713,1.061-.377,2.612.094,3.8.153.383.413.8.826.843a2.4,2.4,0,0,0,.837-.212c.8-.212,1.592.324,2.418.413a6.791,6.791,0,0,0,2.919-.825,25.32,25.32,0,0,1,5-.849,22.4,22.4,0,0,0,7.83-3.249,9.137,9.137,0,0,1,2.919-1.38,8.078,8.078,0,0,1,3.673.419,84.327,84.327,0,0,1,8.426,2.866,39.267,39.267,0,0,0,4.4,1.61,15.921,15.921,0,0,0,9.865-.59c1.1-.436,2.3-1.179,2.359-2.394.041-.678-.489-1.274-.837-1.857-.224-.371-.454-.743-.7-1.1C467.635,634.425,466.2,632.137,464.1,632.261Z" transform="translate(-202.346 -354.743)" opacity="0.1"/>
    <path id="Path_353" data-name="Path 353" d="M436.92,644q1.616.548,3.261,1.014c.59-1.008,1.769-1.71,2.022-2.866a.272.272,0,0,0,0-.153.284.284,0,0,0-.124-.112,6.179,6.179,0,0,0-2.559-.749c-.708-.041-1.032.7-1.35,1.215C438.046,642.583,437.209,644.116,436.92,644Z" transform="translate(-209.957 -359.139)" fill="#fbbebe"/>
    <path id="Path_354" data-name="Path 354" d="M432.068,643.642a2.358,2.358,0,0,1-1.586-1.044c-.147-.265-.313-.625-.619-.59s-.407.354-.472.631a17.678,17.678,0,0,1-.89,3.06,5.743,5.743,0,0,1-1.9,2.506c-.4.277-.843.483-1.238.778a8.5,8.5,0,0,1-1.044.79,6.187,6.187,0,0,1-.8.295,5.556,5.556,0,0,0-1.144.59,2.269,2.269,0,0,0-.784.749,1.079,1.079,0,0,0-.059,1.044,1.115,1.115,0,0,0,.761.519,3.213,3.213,0,0,0,.949,0c1.256-.089,2.512-.2,3.768-.313a10.877,10.877,0,0,0,1.574-.218l.82-.224A6.52,6.52,0,0,1,430.83,652a1.113,1.113,0,0,1,.419.041c.289.094.5.383.8.442a1.334,1.334,0,0,0,.59-.077,13.027,13.027,0,0,1,2.789-.289,1.177,1.177,0,0,0,1.085-.472c.236-.46-.153-.973-.312-1.468a4.719,4.719,0,0,1-.13-.961,5.859,5.859,0,0,0-.69-2.288c-.318-.59-.755-1.238-.531-1.863a1.772,1.772,0,0,0,.212-.643C434.969,643.412,432.646,643.771,432.068,643.642Z" transform="translate(-203.596 -359.496)" fill="#fff"/>
    <path id="Path_355" data-name="Path 355" d="M474.382,610.586a5.378,5.378,0,0,1-2.748-2.724c-.112-.26-.206-.537-.318-.8a6.052,6.052,0,0,0-1.639-2.282.808.808,0,0,0-.59-.254.643.643,0,0,0-.442.478,1.821,1.821,0,0,0-.047.737,13.145,13.145,0,0,0,.295,1.722l.336,1.521a3.341,3.341,0,0,0,.206.678,2.356,2.356,0,0,0,.56.666c.307.283.619.554.932.826a3.2,3.2,0,0,0,.59.407,3.425,3.425,0,0,0,1.044.307,8.879,8.879,0,0,1,3.915,1.51s0-1.02,0-1.132a1.5,1.5,0,0,0-.295-.82A5.231,5.231,0,0,0,474.382,610.586Z" transform="translate(-222.949 -344.117)" fill="#fbbebe"/>
    <path id="Path_356" data-name="Path 356" d="M474.382,610.586a5.378,5.378,0,0,1-2.748-2.724c-.112-.26-.206-.537-.318-.8a6.052,6.052,0,0,0-1.639-2.282.808.808,0,0,0-.59-.254.643.643,0,0,0-.442.478,1.821,1.821,0,0,0-.047.737,13.145,13.145,0,0,0,.295,1.722l.336,1.521a3.341,3.341,0,0,0,.206.678,2.356,2.356,0,0,0,.56.666c.307.283.619.554.932.826a3.2,3.2,0,0,0,.59.407,3.425,3.425,0,0,0,1.044.307,8.879,8.879,0,0,1,3.915,1.51s0-1.02,0-1.132a1.5,1.5,0,0,0-.295-.82A5.231,5.231,0,0,0,474.382,610.586Z" transform="translate(-222.949 -344.117)" opacity="0.1"/>
    <ellipse id="Ellipse_63" data-name="Ellipse 63" cx="1.675" cy="1.686" rx="1.675" ry="1.686" transform="translate(263.779 251.456)" fill="#2f2e41"/>
    <path id="Path_357" data-name="Path 357" d="M492.376,590.445a1.81,1.81,0,0,0-1.321.189,1.833,1.833,0,0,0-.454.619,8.988,8.988,0,0,0-.873,2.052c-.147.59-.171,1.256-.36,1.863-.342,1.12-1.221,2.07-1.321,3.237-.047.525.041,1.138-.342,1.492a2.177,2.177,0,0,1-.3.218,2.264,2.264,0,0,0-.66.678,2.224,2.224,0,0,1-.466.643c-.342.253-.908.23-1.073.59s.265.849.165,1.274-.472.507-.737.743a2.576,2.576,0,0,0-.637,1.179,3.933,3.933,0,0,1-3.208-.8,10.213,10.213,0,0,1,.5,3.668,1.5,1.5,0,0,1-.295,1.132,20.424,20.424,0,0,1,3.933.684,2.712,2.712,0,0,0,1.716,0,2.867,2.867,0,0,0,.79-.625,5.038,5.038,0,0,0,1.622-2.5,14.7,14.7,0,0,0,.029-1.692,9.538,9.538,0,0,1,.43-2.058,24.479,24.479,0,0,0,.749-4.234c.077-.884.843-1.592,1.244-2.359a11.546,11.546,0,0,0,1.586-4.717C493.119,591.182,492.931,590.5,492.376,590.445Z" transform="translate(-227.96 -338.317)" fill="#2f2e41"/>
    <path id="Path_358" data-name="Path 358" d="M492.376,590.445a1.81,1.81,0,0,0-1.321.189,1.833,1.833,0,0,0-.454.619,8.988,8.988,0,0,0-.873,2.052c-.147.59-.171,1.256-.36,1.863-.342,1.12-1.221,2.07-1.321,3.237-.047.525.041,1.138-.342,1.492a2.177,2.177,0,0,1-.3.218,2.264,2.264,0,0,0-.66.678,2.224,2.224,0,0,1-.466.643c-.342.253-.908.23-1.073.59s.265.849.165,1.274-.472.507-.737.743a2.576,2.576,0,0,0-.637,1.179,3.933,3.933,0,0,1-3.208-.8,10.213,10.213,0,0,1,.5,3.668,1.5,1.5,0,0,1-.295,1.132,20.424,20.424,0,0,1,3.933.684,2.712,2.712,0,0,0,1.716,0,2.867,2.867,0,0,0,.79-.625,5.038,5.038,0,0,0,1.622-2.5,14.7,14.7,0,0,0,.029-1.692,9.538,9.538,0,0,1,.43-2.058,24.479,24.479,0,0,0,.749-4.234c.077-.884.843-1.592,1.244-2.359a11.546,11.546,0,0,0,1.586-4.717C493.119,591.182,492.931,590.5,492.376,590.445Z" transform="translate(-227.96 -338.317)" opacity="0.1"/>
    <path id="Path_359" data-name="Path 359" d="M473.846,626.128a15.545,15.545,0,0,1-3.644-3.043c-2.211-2.081-4.918-3.538-7.247-5.5a51.062,51.062,0,0,0-4.617-3.88,11.539,11.539,0,0,0-4.947-1.728,1.317,1.317,0,0,0-.59,0,1.357,1.357,0,0,0-.56.442,17.823,17.823,0,0,0-2,2.742c-2.948,5.012-7.141,9.222-10.613,13.88a.883.883,0,0,0-.171.33.82.82,0,0,0,.13.513l.708,1.38c.4.778,1.032,1.681,1.881,1.527a2.058,2.058,0,0,0,.985-.631l3.172-3.037,3.326-3.178a25.508,25.508,0,0,0,5.2-6.144c.991,1.722,2.754,2.848,3.956,4.422.46.59.837,1.256,1.25,1.893.654,1.014,1.4,1.969,2.146,2.948l3.815,4.865A7.3,7.3,0,0,0,467.8,635.7a6.751,6.751,0,0,0,3.06.819,40.413,40.413,0,0,0,4.31.153,7.429,7.429,0,0,0,3.214-.59,2.913,2.913,0,0,0,1.739-2.589,3.8,3.8,0,0,0-.548-1.61A13.14,13.14,0,0,0,473.846,626.128Z" transform="translate(-210.998 -347.159)" fill="#2f2e41"/>
    <ellipse id="Ellipse_64" data-name="Ellipse 64" cx="1.291" cy="1.297" rx="1.291" ry="1.297" transform="translate(265.195 253.013)" fill="#e8e8f0"/>
    <path id="Path_360" data-name="Path 360" d="M502.239,589.711a2.482,2.482,0,0,1,.142,1.863,7.563,7.563,0,0,1-.831,1.716,8.168,8.168,0,0,1-1.079,1.533,11.106,11.106,0,0,0,5.672-1.627,8.238,8.238,0,0,0,3.579-3.119,1.651,1.651,0,0,1-1.321-.248,4.718,4.718,0,0,1-1.008-.937l-1-1.12a4.488,4.488,0,0,1-.59-.808,2.228,2.228,0,0,1-.265-1.3,7.584,7.584,0,0,1-1.321,1.1c-.713.466-1.5.8-2.217,1.262-.248.165-.814.424-.666.755S502.038,589.357,502.239,589.711Z" transform="translate(-236.036 -336.374)" fill="#fbbebe"/>
    <path id="Path_361" data-name="Path 361" d="M502.239,589.711a2.482,2.482,0,0,1,.142,1.863,7.563,7.563,0,0,1-.831,1.716,8.168,8.168,0,0,1-1.079,1.533,11.106,11.106,0,0,0,5.672-1.627,8.238,8.238,0,0,0,3.579-3.119,1.651,1.651,0,0,1-1.321-.248,4.718,4.718,0,0,1-1.008-.937l-1-1.12a4.488,4.488,0,0,1-.59-.808,2.228,2.228,0,0,1-.265-1.3,7.584,7.584,0,0,1-1.321,1.1c-.713.466-1.5.8-2.217,1.262-.248.165-.814.424-.666.755S502.038,589.357,502.239,589.711Z" transform="translate(-236.036 -336.374)" opacity="0.1"/>
    <path id="Path_362" data-name="Path 362" d="M498.048,592.715a1.68,1.68,0,0,0,0,1.946c.059.071.271.513.36.519a.324.324,0,0,0,.224-.118,14.811,14.811,0,0,0,1.262-1.5,2.806,2.806,0,0,1,1.6-1.05,3.468,3.468,0,0,1,2.211.69,2.1,2.1,0,0,1,.761.59,2.058,2.058,0,0,1,.248.843,40.62,40.62,0,0,1,.224,5.36,21.118,21.118,0,0,1-.254,3.862c-.13.654-.318,1.3-.407,1.963a12.533,12.533,0,0,0-.083,1.769v2.465a6.483,6.483,0,0,0,.094,1.35c.118.536.371,1.038.542,1.563a10.211,10.211,0,0,1,.36,1.846l.336,2.547a3.22,3.22,0,0,1-.3,2.359c-.218.289-.507.525-.731.814-.831,1.085-.59,2.636-.914,3.962a4.94,4.94,0,0,1-1.616,2.476,2.671,2.671,0,0,1-2.129.761,2.916,2.916,0,0,1-1.94-2.294,9.17,9.17,0,0,0-1-2.99,7.93,7.93,0,0,0-1.969-1.645,3.4,3.4,0,0,1-1.539-2c-.065-.371,0-.755-.065-1.132a2.671,2.671,0,0,0-1.645-2.164c-.531-.206-1.179-.283-1.486-.766a3.578,3.578,0,0,0,1.551-2.081,10.688,10.688,0,0,0,.377-2.63l.177-2.948a9.849,9.849,0,0,1,.7-3.827c.259-.531.59-1.032.855-1.557a16.9,16.9,0,0,0,.914-2.282c.425-1.215.849-2.429,1.226-3.656a6.889,6.889,0,0,1,.672-1.7C496.993,593.5,497.453,592.833,498.048,592.715Z" transform="translate(-231.822 -339.183)" fill="#e8e8f0"/>
    <path id="Path_363" data-name="Path 363" d="M492.3,611.589h.784l.165-1.179a2.456,2.456,0,0,1,.165-.69,4.127,4.127,0,0,1,.454-.66c.767-1.091.714-2.536.9-3.862a19.649,19.649,0,0,1,1.722-5.047l1.521-3.39a4.679,4.679,0,0,0,.33-.867,5.2,5.2,0,0,0,.094-1c0-.525.165-2.435.183-2.948,0-.195-.43-.088-.519-.26-.189-.377-.448.643-.808.867a1.98,1.98,0,0,0-.7,1.026c-.33.849-.531,1.769-.837,2.612a5.335,5.335,0,0,1-1.421,2.311c-.312.271-.672.49-.967.784-.943.932-1.038,2.412-1.067,3.744C492.278,603.841,492.124,611.589,492.3,611.589Z" transform="translate(-232.649 -338.811)" fill="#2f2e41"/>
    <path id="Path_364" data-name="Path 364" d="M506.522,590.414a2.677,2.677,0,0,0-1.4,1.916,9.694,9.694,0,0,1-.708,2.359c-.955,1.663-3.39,2.146-4.068,3.945a7.25,7.25,0,0,0-.271,1.857c-.118,1.291-.543,2.536-.672,3.821a17.024,17.024,0,0,0,.071,3l.855,10.154a13.563,13.563,0,0,1-.253,4.469,4.3,4.3,0,0,0,2.559-.424c.8-.366,1.527-.867,2.3-1.291A23.678,23.678,0,0,0,508.881,618a2.411,2.411,0,0,0,.531-.59,5.1,5.1,0,0,0,.354-1.333,7.2,7.2,0,0,1,.383-1.05,30.9,30.9,0,0,0,1.109-3.137,18,18,0,0,0,.507-2.146c.094-.59.147-1.179.195-1.769a10.379,10.379,0,0,1,.542-2.683,21.61,21.61,0,0,0,1.244-6.439,3.367,3.367,0,0,0-.065-.943,5.051,5.051,0,0,0-.519-1.079c-.354-.666-.59-1.4-.9-2.075a10.207,10.207,0,0,0-3.485-3.662A2.654,2.654,0,0,0,506.522,590.414Z" transform="translate(-235.584 -338.292)" fill="#2f2e41"/>
    <path id="Path_365" data-name="Path 365" d="M474.865,616.187a6.15,6.15,0,0,1-1.621-1.232c-.212-.248-.389-.525-.59-.772a4.015,4.015,0,0,0-2.04-1.179,9.964,9.964,0,0,0-2.358-.23,4.278,4.278,0,0,0-1.574.189,1.6,1.6,0,0,0-1.044,1.12,1.857,1.857,0,0,0,.8,1.651,3.75,3.75,0,0,0,1.586.767,12.681,12.681,0,0,0,1.433.171c2.818.295,5.336,1.828,7.807,3.225q3.255,1.851,6.639,3.444a13.8,13.8,0,0,0,.112-2.034c0-.507-.041-1.285-.519-1.586a10.42,10.42,0,0,0-2.111-.631,33.231,33.231,0,0,1-4.251-1.722A21.15,21.15,0,0,1,474.865,616.187Z" transform="translate(-221.74 -347.496)" fill="#fbbebe"/>
    <ellipse id="Ellipse_65" data-name="Ellipse 65" cx="5.024" cy="5.053" rx="5.024" ry="5.053" transform="translate(260.43 242.653)" fill="#fbbebe"/>
    <path id="Path_366" data-name="Path 366" d="M505.309,599.734a8.052,8.052,0,0,0-.973,1.822c-.59,1.274-1.592,2.359-2.081,3.709s-.5,3.084-1.5,4.186a1.468,1.468,0,0,0-.442.637,3.029,3.029,0,0,1-.047.46c-.147.4-.8.419-.926.831-.035.118,0,.248-.059.366-.1.265-.454.307-.684.466-.489.33-.389,1.1-.737,1.574a1.327,1.327,0,0,1-1.256.442,4.423,4.423,0,0,1-1.3-.489,1.257,1.257,0,0,0-.472-.147.973.973,0,0,0-.542.189,3.343,3.343,0,0,0-1.356,2.86,9.34,9.34,0,0,0,.778,3.2,1.285,1.285,0,0,0,.253.478,1.126,1.126,0,0,0,1.25.094,5.9,5.9,0,0,1,1.221-.548c.778-.141,1.539.4,2.329.348a3.237,3.237,0,0,0,1.568-.69,8.669,8.669,0,0,0,2.111-1.769c.342-.454.59-.967.9-1.451a18.632,18.632,0,0,1,1.268-1.692l2.9-3.538a8.151,8.151,0,0,0,.778-1.073,7.566,7.566,0,0,0,.59-1.621,12.422,12.422,0,0,0,.59-2.883,11.077,11.077,0,0,0-.212-2.417,8.544,8.544,0,0,0-.59-2.306C508.028,599.439,506.495,598.355,505.309,599.734Z" transform="translate(-232.939 -341.886)" fill="#2f2e41"/>
    <path id="Path_367" data-name="Path 367" d="M513.447,577.59a5.661,5.661,0,0,0-2.323-4.6,6.728,6.728,0,0,0-5.713-6.551,6.527,6.527,0,0,0-12.86.348c-2.087-.472-4,.142-4.346,1.427s1.126,2.948,3.326,3.538a6.2,6.2,0,0,0,2.135.212,6.533,6.533,0,0,0,4.493,2.8,6.7,6.7,0,0,0,4.906,5.059,5.632,5.632,0,0,0,1.515,2.093v.489a4.251,4.251,0,0,0,8.5,0,4.54,4.54,0,0,0-.407-1.881A5.684,5.684,0,0,0,513.447,577.59Z" transform="translate(-230.982 -326.334)" fill="#f86d70"/>
    <path id="Path_368" data-name="Path 368" d="M489.616,568.484c.348-1.285,2.258-1.9,4.346-1.427a6.639,6.639,0,0,1,6.486-5.59h.43a6.39,6.39,0,0,0-1.851-.277,6.639,6.639,0,0,0-6.486,5.59c-2.087-.472-4,.142-4.346,1.427s1.126,2.948,3.326,3.538a6.485,6.485,0,0,0,1.262.218C490.677,571.332,489.268,569.8,489.616,568.484Z" transform="translate(-230.978 -326.332)" opacity="0.1"/>
    <path id="Path_369" data-name="Path 369" d="M509.9,590.3a4.434,4.434,0,0,1,0-.483,5.507,5.507,0,0,1-1.515-2.093,6.687,6.687,0,0,1-4.906-5.065,6.515,6.515,0,0,1-4.5-2.795,5.658,5.658,0,0,1-1.256-.035,6.552,6.552,0,0,0,4.334,2.577,6.7,6.7,0,0,0,4.906,5.059,5.632,5.632,0,0,0,1.515,2.093v.49a4.328,4.328,0,0,0,4.228,4.4A4.4,4.4,0,0,1,509.9,590.3Z" transform="translate(-234.908 -333.981)" opacity="0.1"/>
    <ellipse id="Ellipse_66" data-name="Ellipse 66" cx="0.772" cy="1.032" rx="0.772" ry="1.032" transform="translate(265.896 248.384) rotate(-37.22)" fill="#fbbebe"/>
    <path id="Path_294" data-name="Path 294" d="M838.335,397.314a44.656,44.656,0,0,0-9.434-6.3c-2.824-1.356-3.862-1.333-5.861.112-1.663,1.179-2.742,2.317-4.652,1.9s-5.7-3.272-9.358-6.922-6.5-7.412-6.911-9.352.713-3,1.9-4.658c1.439-2,1.48-3.037.112-5.861a45.218,45.218,0,0,0-6.309-9.434c-2.07-2.064-2.518-1.61-3.65-1.179a21.105,21.105,0,0,0-3.343,1.769,10.087,10.087,0,0,0-4.01,4.24c-.808,1.722-1.722,4.917,2.978,13.284a74.11,74.11,0,0,0,13.031,17.376h0a74.225,74.225,0,0,0,17.436,13.055c8.361,4.717,11.563,3.78,13.285,2.978a9.9,9.9,0,0,0,4.234-4.01,20.842,20.842,0,0,0,1.769-3.343C839.945,399.832,840.4,399.372,838.335,397.314Z" transform="translate(-353.277 -241.821)" fill="#4f46db"/>
  </g>
</svg>
